<svg width="30" height="31" viewBox="0 0 30 31" fill="none" xmlns="http://www.w3.org/2000/svg">
<path fill-rule="evenodd" clip-rule="evenodd" d="M28.8225 7.97666L28.6008 7.59124C28.3149 7.12518 27.9116 6.73782 27.4292 6.46583L16.805 0.499578C16.324 0.227859 15.7779 0.0842841 15.2217 0.0833282H14.7625C14.2063 0.0842841 13.6602 0.227859 13.1792 0.499578L2.555 6.48124C2.0752 6.75144 1.67666 7.13949 1.39917 7.60666L1.1775 7.99208C0.898437 8.4605 0.750982 8.99222 0.75 9.53374V21.4817C0.750982 22.0232 0.898437 22.555 1.1775 23.0233L1.39917 23.4087C1.68383 23.8705 2.08078 24.257 2.555 24.5342L13.195 30.5004C13.6736 30.7777 14.2213 30.9217 14.7783 30.9167H15.2217C15.7779 30.9157 16.324 30.7722 16.805 30.5004L27.4292 24.5187C27.9137 24.2547 28.3138 23.8651 28.585 23.3933L28.8225 23.0079C29.0981 22.5382 29.2454 22.0074 29.25 21.4662V9.51833C29.249 8.9768 29.1016 8.44508 28.8225 7.97666ZM14.7625 3.16666H15.2217L24.5 8.37749L15 13.7117L5.5 8.37749L14.7625 3.16666ZM16.5833 27.0625L25.8458 21.8517L26.0833 21.4662V11.0446L16.5833 16.3942V27.0625Z" fill="white"/>
</svg>
